<svg width="720" height="230" viewBox="0 0 720 230" xmlns="http://www.w3.org/2000/svg">
  <defs>
    <linearGradient id="bg" x1="0" y1="0" x2="0" y2="1">
      <stop offset="0" stop-color="#F2703D"/>
      <stop offset="1" stop-color="#E44E1F"/>
    </linearGradient>
    <filter id="soft-shadow" x="-30%" y="-30%" width="160%" height="160%">
      <feDropShadow dx="0" dy="6" stdDeviation="8" flood-color="#7A2A0F" flood-opacity="0.25"/>
    </filter>
  </defs>
  <rect x="8" y="15" width="196" height="196" rx="46" fill="url(#bg)" filter="url(#soft-shadow)"/>
  <g transform="translate(8,15) scale(0.3828)" fill="none" stroke="#FFFFFF" stroke-width="18" stroke-linecap="round" stroke-linejoin="round">
    <rect x="92" y="136" width="328" height="240" rx="20"/>
    <line x1="256" y1="136" x2="256" y2="376"/>
    <circle cx="256" cy="256" r="46"/>
  </g>
  <circle cx="106" cy="113" r="4" fill="#FFFFFF"/>
  <path d="M244.99 128V63.6H258.7L277.47 91.38L296.24 63.6H309.85V128H297.34V83.29L277.47 112.54L257.6 83.38V128Z M334.99 129.1Q326.71 129.1 322.16 125.42Q317.6 121.74 317.6 115.03Q317.6 107.67 322.53 103.94Q327.45 100.22 336.37 100.22H347.23Q346.58 95.98 344.56 93.73Q342.54 91.48 338.76 91.48Q335.82 91.48 333.43 92.76Q331.04 94.05 329.38 96.72L318.71 93.04Q320 90.1 322.48 87.29Q324.96 84.48 328.97 82.69Q332.97 80.9 338.76 80.9Q345.76 80.9 350.4 83.56Q355.05 86.23 357.3 91.06Q359.56 95.89 359.46 102.52L359.19 128H347.87L347.69 122.66Q345.94 125.79 342.77 127.45Q339.59 129.1 334.99 129.1ZM337.02 118.98Q339.96 118.98 342.35 117.6Q344.74 116.22 346.12 114.02Q347.5 111.81 347.5 109.42V109.23H340.6Q334.62 109.23 332.32 110.66Q330.02 112.08 330.02 114.66Q330.02 116.68 331.86 117.83Q333.7 118.98 337.02 118.98Z M367.86 128V82H380V128ZM373.93 74.55Q371.17 74.55 369.06 72.48Q366.94 70.41 366.94 67.56Q366.94 64.7 369.06 62.63Q371.17 60.56 373.93 60.56Q376.78 60.56 378.85 62.63Q380.92 64.7 380.92 67.56Q380.92 70.41 378.85 72.48Q376.78 74.55 373.93 74.55Z M407.54 129.1Q401.19 129.1 396.54 126.16Q391.9 123.22 389.32 117.79Q386.74 112.36 386.74 105Q386.74 97.55 389.32 92.17Q391.9 86.78 396.54 83.84Q401.19 80.9 407.54 80.9Q412.04 80.9 415.59 82.78Q419.13 84.67 421.34 88.16V63.6H433.48V128H421.98L421.61 121.56Q419.31 125.15 415.72 127.13Q412.14 129.1 407.54 129.1ZM410.66 117.97Q413.7 117.97 416.05 116.45Q418.39 114.94 419.77 112.18Q421.15 109.42 421.34 105.92V104.08Q421.15 100.58 419.77 97.87Q418.39 95.16 416 93.64Q413.61 92.12 410.57 92.12Q407.26 92.12 404.73 93.73Q402.2 95.34 400.77 98.28Q399.35 101.23 399.35 105Q399.35 108.77 400.82 111.72Q402.29 114.66 404.82 116.32Q407.35 117.97 410.66 117.97Z M456.87 129.1Q448.59 129.1 444.04 125.42Q439.48 121.74 439.48 115.03Q439.48 107.67 444.41 103.94Q449.33 100.22 458.25 100.22H469.11Q468.46 95.98 466.44 93.73Q464.42 91.48 460.64 91.48Q457.7 91.48 455.31 92.76Q452.92 94.05 451.26 96.72L440.59 93.04Q441.88 90.1 444.36 87.29Q446.84 84.48 450.85 82.69Q454.85 80.9 460.64 80.9Q467.64 80.9 472.28 83.56Q476.93 86.23 479.18 91.06Q481.44 95.89 481.34 102.52L481.07 128H469.75L469.57 122.66Q467.82 125.79 464.65 127.45Q461.47 129.1 456.87 129.1ZM458.9 118.98Q461.84 118.98 464.23 117.6Q466.62 116.22 468 114.02Q469.38 111.81 469.38 109.42V109.23H462.48Q456.5 109.23 454.2 110.66Q451.9 112.08 451.9 114.66Q451.9 116.68 453.74 117.83Q455.58 118.98 458.9 118.98Z M489 128V82H500.41L500.96 88.26Q503.17 84.67 506.62 82.78Q510.07 80.9 514.49 80.9Q519.92 80.9 523.78 83.1Q527.64 85.31 529.67 89.96Q531.69 94.6 531.6 101.96V128H519.46V104.45Q519.46 99.76 518.4 97.18Q517.34 94.6 515.41 93.45Q513.48 92.3 510.9 92.3Q506.21 92.21 503.68 95.16Q501.15 98.1 501.15 103.9V128Z" fill="#2C2C2A"/>
  <rect x="240" y="150" width="120" height="6" rx="3" fill="#EF5A2C"/>
</svg>
